<svg width="69" height="56" viewBox="0 0 69 56" fill="none" xmlns="http://www.w3.org/2000/svg">
<g clip-path="url(#clip0_150_14)">
<path d="M39.1605 16.87L37.8643 15.87C37.6617 15.7043 37.4026 15.626 37.1432 15.6522C36.8838 15.6784 36.6451 15.807 36.479 16.01L18.5396 36.83L18.8166 37.14L23.2594 33C23.1114 32.9398 22.9888 32.8291 22.9132 32.6871C22.8375 32.5451 22.8135 32.3807 22.8452 32.2227C22.877 32.0646 22.9625 31.9227 23.087 31.8218C23.2115 31.7208 23.367 31.6671 23.5266 31.67C23.6705 31.67 23.8106 31.7166 23.9264 31.803C24.0421 31.8894 24.1274 32.011 24.1698 32.15L30.0275 26.66C30.1172 26.587 30.229 26.5472 30.3442 26.5472C30.4594 26.5472 30.5711 26.587 30.6608 26.66L30.9577 26.88C31.0581 26.9528 31.1818 26.9849 31.3045 26.9701C31.4272 26.9553 31.54 26.8946 31.6206 26.8L39.2793 18.12C39.3607 18.0339 39.4228 17.931 39.4613 17.8184C39.4999 17.7058 39.514 17.5862 39.5028 17.4676C39.4915 17.349 39.4551 17.2343 39.396 17.1312C39.337 17.028 39.2567 16.939 39.1605 16.87Z" fill="#303030"/>
<path d="M47.5909 22.73C43.6651 25.553 39.2672 27.6364 34.6088 28.88C29.9854 30.0683 25.2544 30.7786 20.4888 31C20.5847 31.7102 20.7573 32.4077 21.0033 33.08C23.6947 35.54 43.9595 31.34 47.9175 26.48C48.7585 25.47 47.5909 22.73 47.5909 22.73ZM23.5265 33C23.3934 33 23.2633 32.9601 23.1527 32.8854C23.042 32.8107 22.9558 32.7045 22.9049 32.5802C22.8539 32.4559 22.8406 32.3192 22.8666 32.1873C22.8925 32.0554 22.9566 31.9342 23.0507 31.8391C23.1448 31.744 23.2647 31.6793 23.3952 31.653C23.5258 31.6268 23.661 31.6403 23.784 31.6917C23.9069 31.7432 24.012 31.8304 24.086 31.9422C24.1599 32.054 24.1994 32.1855 24.1994 32.32C24.2007 32.4097 24.1842 32.4987 24.1509 32.5818C24.1175 32.6649 24.068 32.7404 24.0053 32.8038C23.9425 32.8672 23.8678 32.9173 23.7856 32.951C23.7033 32.9847 23.6152 33.0013 23.5265 33Z" fill="#303030"/>
<path d="M4.38005 21.2899L4.53837 20.5999L7.11105 21.1899C7.3233 21.5861 7.45453 22.0214 7.49695 22.4699C7.54606 22.945 7.51595 23.425 7.4079 23.8899C7.27981 24.5352 6.98638 25.1352 6.55693 25.6299C6.14836 26.097 5.62154 26.4428 5.03312 26.6299C4.42665 26.8189 3.78162 26.8431 3.16298 26.6999C2.54299 26.5646 1.9715 26.2603 1.51053 25.8199C1.05662 25.3969 0.730679 24.8526 0.570515 24.2499C0.392836 23.5954 0.392836 22.9045 0.570515 22.2499C0.676863 21.76 0.867784 21.2929 1.13452 20.8699C1.38698 20.4853 1.72609 20.1665 2.12402 19.9399L2.48023 20.4899C2.13916 20.7016 1.84638 20.9839 1.62124 21.3183C1.39609 21.6527 1.24369 22.0316 1.1741 22.4299C1.05139 22.9473 1.06161 23.4877 1.20379 23.9999C1.33675 24.4863 1.60048 24.9259 1.9657 25.2699C2.34109 25.6367 2.81075 25.8896 3.3213 25.9999C3.81637 26.1404 4.34015 26.1404 4.83522 25.9999C5.30947 25.8417 5.73543 25.5628 6.07208 25.1899C6.41805 24.7873 6.65647 24.3019 6.76473 23.7799C6.92753 23.1468 6.88593 22.4776 6.64599 21.8699L4.38005 21.2899Z" fill="#303030"/>
<path d="M9.9804 14.9999L7.67489 18.1099L8.66438 19.8999L8.20921 20.5199L4.5481 13.7699L4.97358 13.1799L12.4244 14.7999L11.9594 15.4199L9.9804 14.9999ZM9.32734 14.8399L5.36937 13.9399L7.34835 17.5299L9.32734 14.8399Z" fill="#303030"/>
<path d="M9.32739 8.5501L9.92109 8.1001L13.691 13.2001L16.798 10.8501L17.1741 11.3601L13.4833 14.1501L9.32739 8.5501Z" fill="#303030"/>
<path d="M15.561 4.38008L16.224 4.08008L18.8362 9.86008L22.3687 8.24008L22.626 8.82008L18.4306 10.7501L15.561 4.38008Z" fill="#303030"/>
<path d="M28.6025 6.68003L28.751 7.31003L23.9816 8.44003L22.3984 1.62003L27.0293 0.530029L27.1678 1.15003L23.2098 2.08003L23.7738 4.50003L27.2568 3.67003L27.4053 4.29003L23.9124 5.11003L24.5061 7.64003L28.6025 6.68003Z" fill="#303030"/>
<path d="M35.4005 6.92997L33.748 4.72997C33.5635 4.74029 33.3785 4.74029 33.1939 4.72997L31.3337 4.78997L31.4029 7.00997H30.6707L30.4431 0.00996866L33.0752 -3.1339e-05C33.8193 -0.0694894 34.5635 0.132721 35.1729 0.569969C35.4297 0.778962 35.6362 1.04418 35.7767 1.3456C35.9173 1.64702 35.9882 1.97678 35.9843 2.30997C36.0131 2.80416 35.8849 3.29473 35.6182 3.70997C35.3338 4.10853 34.9321 4.40603 34.4703 4.55997L36.202 6.89997L35.4005 6.92997ZM34.7078 3.63997C34.8857 3.47531 35.0237 3.27154 35.1112 3.04439C35.1987 2.81725 35.2333 2.57281 35.2125 2.32997C35.2176 2.08584 35.1677 1.84374 35.0665 1.62198C34.9654 1.40022 34.8156 1.20461 34.6287 1.04997C34.1726 0.737448 33.6242 0.592707 33.0752 0.639969L31.1951 0.709969L31.3139 4.20997L33.1543 4.14997C33.7155 4.17096 34.2659 3.99026 34.7078 3.63997Z" fill="#303030"/>
<path d="M40.6347 5.07L40.2785 7.46L39.5562 7.35L39.9223 5L37.874 0L38.6458 0.12L40.3972 4.38L43.3657 0.85L44.0583 1L40.6347 5.07Z" fill="#303030"/>
<path d="M50.4209 4.64993L51.2818 5.77993L50.9058 6.07993L50.0449 4.91993L49.5007 6.22993L49.0851 6.04993L49.6392 4.73993L48.2144 4.92993V4.44993L49.6194 4.28993L48.7487 3.15993L49.1346 2.85993L49.8965 3.99993L50.4308 2.67993L50.8563 2.85993L50.3517 4.19993L51.7765 3.99993V4.48993L50.4209 4.64993Z" fill="#303030"/>
<path d="M53.7258 12.7099C53.4921 12.3458 53.3464 11.9314 53.3003 11.4999L53.8841 11.2399C53.9279 11.6363 54.0562 12.0184 54.2601 12.3599C54.4811 12.7428 54.7695 13.0817 55.1111 13.3599C55.4638 13.7012 55.9138 13.9216 56.3974 13.9899C56.5721 14.0063 56.7482 13.9793 56.9103 13.9114C57.0723 13.8434 57.2156 13.7365 57.3275 13.5999C57.4096 13.5084 57.4721 13.4008 57.5113 13.2838C57.5505 13.1669 57.5654 13.043 57.5551 12.9199C57.5224 12.6762 57.4416 12.4416 57.3176 12.2299C57.1317 11.923 56.9302 11.6259 56.714 11.3399C56.4506 10.9911 56.2125 10.6235 56.0016 10.2399C55.8404 9.95284 55.752 9.6299 55.7443 9.29992C55.7436 8.92934 55.8815 8.57218 56.1302 8.29992C56.3459 8.03604 56.6304 7.83857 56.9515 7.72992C57.3103 7.62518 57.6911 7.62518 58.0499 7.72992C58.5121 7.88269 58.9394 8.12751 59.3065 8.44992C59.6111 8.70599 59.8807 9.00192 60.108 9.32992C60.3182 9.63408 60.4755 9.97227 60.5731 10.3299L60.009 10.6299C59.9107 10.2966 59.764 9.97979 59.5737 9.68992C59.3841 9.43106 59.1612 9.199 58.9107 8.99992C58.5632 8.66016 58.1146 8.44575 57.6343 8.38992C57.4577 8.375 57.2803 8.40466 57.118 8.47623C56.9556 8.5478 56.8134 8.65903 56.7041 8.79992C56.62 8.89 56.5561 8.99741 56.5168 9.11477C56.4775 9.23214 56.4638 9.35669 56.4766 9.47992C56.4997 9.73209 56.5811 9.97526 56.714 10.1899C56.8526 10.4199 57.0505 10.7199 57.3176 11.0799C57.5825 11.4207 57.8207 11.7818 58.0301 12.1599C58.1947 12.4461 58.2865 12.7691 58.2972 13.0999C58.2979 13.4705 58.1601 13.8277 57.9113 14.0999C57.6949 14.3674 57.4061 14.5655 57.0801 14.6699C56.722 14.7792 56.3399 14.7792 55.9818 14.6699C55.5164 14.5176 55.0858 14.2728 54.7153 13.9499C54.3158 13.5986 53.9809 13.1788 53.7258 12.7099Z" fill="#303030"/>
<path d="M63.6799 14.17L62.2847 12.17L62.7993 11.8L66.0151 16.44L65.5006 16.81L64.1054 14.81L58.9402 18.46L58.5247 17.85L63.6799 14.17Z" fill="#303030"/>
<path d="M61.4635 22.39C61.6402 21.7856 61.9834 21.2445 62.453 20.83C62.9124 20.4141 63.4721 20.1279 64.0758 20C64.6911 19.8572 65.3329 19.8814 65.936 20.07C66.5182 20.2645 67.04 20.6092 67.4499 21.07C67.8762 21.5656 68.1662 22.1656 68.291 22.81C68.4549 23.4426 68.4549 24.1073 68.291 24.74C68.1095 25.3421 67.7671 25.8819 67.3015 26.3C66.8294 26.727 66.2559 27.0233 65.6369 27.16C65.0179 27.2967 64.3744 27.2691 63.769 27.08C63.1824 26.8949 62.6583 26.5487 62.2551 26.08C61.8308 25.587 61.5409 24.9907 61.414 24.35C61.2629 23.7033 61.2799 23.028 61.4635 22.39ZM62.7597 25.57C63.0901 25.9502 63.5182 26.2306 63.9966 26.38C64.4897 26.5245 65.0108 26.5417 65.5121 26.4298C66.0135 26.318 66.479 26.0808 66.8661 25.74C67.2313 25.4004 67.5011 24.9691 67.6478 24.49C67.7858 23.9841 67.7993 23.4517 67.6872 22.9393C67.5751 22.4269 67.3408 21.95 67.0047 21.55C66.6598 21.1679 66.2185 20.8879 65.7282 20.74C65.2289 20.606 64.7037 20.606 64.2044 20.74C63.7006 20.8377 63.2342 21.0768 62.8587 21.43C62.4901 21.7708 62.22 22.2062 62.077 22.69C61.9427 23.1977 61.9427 23.7322 62.077 24.24C62.1854 24.7361 62.4208 25.1947 62.7597 25.57Z" fill="#303030"/>
<path d="M60.7114 33.9999L63.2742 32.9999C63.2742 32.8199 63.3336 32.6399 63.3831 32.4499L63.8679 30.6399L61.7702 30.0899L61.9582 29.3799L68.6472 31.1899L67.9743 33.7199C67.8227 34.4581 67.4158 35.1176 66.8265 35.5799C66.5557 35.7699 66.2451 35.8941 65.919 35.9427C65.5928 35.9912 65.26 35.9629 64.9465 35.8599C64.469 35.7552 64.0411 35.4891 63.7334 35.1055C63.4258 34.7219 63.2568 34.2437 63.2544 33.7499L60.5234 34.7499L60.7114 33.9999ZM64.0262 34.2799C64.1421 34.4924 64.2994 34.679 64.4885 34.8286C64.6776 34.9781 64.8947 35.0875 65.1267 35.1501C65.3587 35.2126 65.6008 35.2272 65.8385 35.1928C66.0762 35.1584 66.3046 35.0758 66.5099 34.9499C66.9466 34.5954 67.2447 34.0957 67.3509 33.5399L67.8259 31.7399L64.4715 30.8299L63.9965 32.6299C63.814 33.1663 63.8245 33.7506 64.0262 34.2799Z" fill="#303030"/>
<path d="M57.1592 40.4401L56.6545 40.0501L59.623 36.1001L65.1444 40.3301L62.2748 44.1601L61.7702 43.7701L64.1945 40.5401L62.2155 39.0301L60.0485 41.9201L59.5537 41.5401L61.7702 38.6501L59.722 37.0801L57.1592 40.4401Z" fill="#303030"/>
<path d="M54.8439 48.4099L53.429 48.4899V48.0099L54.8439 47.9999L54.082 46.8099L54.4679 46.5599L55.2199 47.7599L55.8334 46.4199L56.2589 46.6499L55.586 47.9099L57.001 47.8299V48.3199H55.5663L56.3282 49.5099L55.9423 49.7599L55.1902 48.5599L54.5372 49.8599L54.1216 49.6199L54.8439 48.4099Z" fill="#303030"/>
<path d="M41.9804 47.6099L43.1777 48.2799C43.3784 47.8902 43.6586 47.5479 43.9997 47.2756C44.3408 47.0033 44.7351 46.8071 45.1567 46.6999C45.5499 46.576 45.9635 46.5318 46.3737 46.5699C46.7297 46.5975 47.0716 46.7219 47.3632 46.9299C47.6269 47.1308 47.8209 47.4108 47.9174 47.7299C48.0366 48.1247 48.0156 48.5491 47.858 48.9299C47.6097 49.4473 47.275 49.9175 46.8685 50.3199C47.1947 50.4971 47.4973 50.7155 47.7689 50.9699C47.9555 51.1648 48.0944 51.4011 48.1746 51.6599C48.2253 51.8617 48.2285 52.0726 48.1838 52.2759C48.1391 52.4791 48.0478 52.6688 47.9174 52.8299C47.6532 53.2146 47.2591 53.4884 46.8091 53.5999C46.414 53.7522 45.9773 53.7522 45.5822 53.5999C45.4065 53.5235 45.2507 53.407 45.1271 53.2596C45.0035 53.1121 44.9154 52.9376 44.8697 52.7499C44.766 52.4198 44.7908 52.0622 44.939 51.7499C45.1661 51.2953 45.4634 50.8801 45.8196 50.5199L43.435 49.1799C43.344 49.6508 43.324 50.1329 43.3756 50.6099H42.772C42.7314 50.0225 42.7985 49.4326 42.9699 48.8699L41.7231 48.1699L41.9804 47.6099ZM43.7021 48.6099L46.3243 50.0799C46.6679 49.7483 46.9524 49.3592 47.1653 48.9299C47.2741 48.64 47.2741 48.3199 47.1653 48.0299C47.1205 47.8567 47.0337 47.6974 46.9128 47.5665C46.7919 47.4356 46.6406 47.3371 46.4727 47.2799C46.0619 47.1397 45.6169 47.1397 45.2061 47.2799C44.8705 47.3694 44.5583 47.5322 44.2916 47.7568C44.0249 47.9814 43.8102 48.2624 43.6625 48.5799L43.7021 48.6099ZM47.4226 52.6099C47.4873 52.4994 47.5278 52.3762 47.5414 52.2486C47.5551 52.1209 47.5416 51.9918 47.5018 51.8699C47.4411 51.6724 47.3322 51.4936 47.1851 51.3499C46.9333 51.1352 46.6577 50.9506 46.3639 50.7999C46.0639 51.0997 45.8013 51.4356 45.5822 51.7999C45.4625 52.0271 45.4342 52.2921 45.503 52.5399C45.5344 52.6543 45.5894 52.7607 45.6645 52.8521C45.7395 52.9434 45.8329 53.0177 45.9384 53.0699C46.1903 53.1659 46.4682 53.1659 46.7201 53.0699C46.9891 52.9974 47.224 52.8309 47.383 52.5999L47.4226 52.6099Z" fill="#303030"/>
<path d="M29.9187 55.3201L30.0572 48.3201H30.7598L30.6509 53.9201L33.4611 49.2601H33.8074L36.4394 54.0001L36.5384 48.4301H37.2409L37.1123 55.4301H36.5087L33.5996 50.2001L30.5223 55.3301L29.9187 55.3201Z" fill="#303030"/>
<path d="M26.4751 48.0001C26.9276 48.4359 27.2514 48.9902 27.4104 49.6012C27.5694 50.2121 27.5573 50.8557 27.3756 51.4601C27.213 52.079 26.8882 52.6421 26.4355 53.0901C25.9956 53.5271 25.444 53.8318 24.8425 53.9701C24.2079 54.1148 23.5474 54.0941 22.9229 53.9101C22.3005 53.7565 21.7279 53.443 21.2605 53.0001C20.8148 52.5698 20.4962 52.0228 20.3403 51.4201C20.1881 50.7971 20.1993 50.1447 20.3729 49.5274C20.5464 48.9101 20.8762 48.3492 21.3298 47.9001C21.7619 47.4642 22.3018 47.1534 22.8932 47.0001C23.5244 46.8558 24.1817 46.8765 24.8029 47.0601C25.4317 47.2212 26.0081 47.5452 26.4751 48.0001ZM23.101 47.6501C22.6169 47.764 22.1745 48.0135 21.8245 48.3701C21.46 48.737 21.2002 49.1965 21.0725 49.7001C20.9345 50.2006 20.9345 50.7296 21.0725 51.2301C21.1892 51.717 21.4396 52.1607 21.7948 52.5101C22.1674 52.8783 22.6274 53.1435 23.1306 53.2801C23.6339 53.4096 24.1612 53.4096 24.6644 53.2801C25.1488 53.1597 25.5927 52.9112 25.9507 52.5601C26.3133 52.1917 26.5727 51.7328 26.7027 51.2301C26.841 50.7263 26.841 50.1939 26.7027 49.6901C26.5761 49.205 26.3232 48.7631 25.9705 48.4101C25.596 48.0414 25.1317 47.7792 24.6248 47.6501C24.1262 47.5108 23.5996 47.5108 23.101 47.6501Z" fill="#303030"/>
<path d="M15.6105 43L15.8777 45.75C16.0474 45.8233 16.2126 45.9068 16.3724 46L17.9853 46.94L19.0738 45L19.7169 45.37L16.2537 51.4L13.9977 50.09C13.3308 49.7515 12.8048 49.1844 12.5134 48.49C12.4059 48.1772 12.3696 47.8439 12.4073 47.5149C12.445 47.1859 12.5557 46.8698 12.7311 46.59C12.9611 46.1518 13.3257 45.8008 13.7701 45.59C14.2214 45.4011 14.7205 45.3626 15.1949 45.48L14.908 42.54L15.6105 43ZM14.4825 46.16C14.2501 46.219 14.0319 46.3247 13.8408 46.4708C13.6498 46.617 13.4899 46.8006 13.3707 47.0107C13.2516 47.2207 13.1756 47.4529 13.1473 47.6934C13.119 47.9338 13.139 48.1776 13.2061 48.41C13.438 48.9276 13.8401 49.3481 14.344 49.6L15.9371 50.53L17.6687 47.53L16.0756 46.6C15.6177 46.2533 15.0539 46.0799 14.4825 46.11V46.16Z" fill="#303030"/>
<path d="M9.75283 38.3101L10.1981 37.8601L13.6118 41.4101L8.66439 46.2901L5.36938 42.8501L5.82455 42.4001L8.62481 45.3101L10.3168 43.5801L7.8629 41.0001L8.33786 40.5401L10.8413 43.1401L12.6817 41.3301L9.75283 38.3101Z" fill="#303030"/>
<path d="M2.40084 34.38L2.63832 33L3.10338 33.07L2.83622 34.49L4.15224 34L4.31056 34.44L2.97475 34.9L4.07308 35.84L3.75644 36.2L2.69769 35.2L2.45032 36.62L1.97536 36.53L2.25242 35.11L0.9265 35.59L0.778076 35.2L2.10399 34.73L1.00566 33.8L1.33219 33.44L2.40084 34.38Z" fill="#303030"/>
</g>
<defs>
<clipPath id="clip0_150_14">
<rect width="68.2056" height="55.46" fill="white" transform="translate(0.421875)"/>
</clipPath>
</defs>
</svg>
